<svg width="28" height="31" viewBox="0 0 28 31" fill="none" xmlns="http://www.w3.org/2000/svg"><path d="M14.77 30.504c-2.968 0-5.516-.63-7.644-1.89-2.128-1.288-3.766-3.066-4.914-5.334C1.064 20.984.49 18.338.49 15.342c0-2.996.574-5.642 1.722-7.938C3.36 5.108 4.998 3.316 7.126 2.028 9.254.74 11.802.096 14.77.096c3.528 0 6.412.882 8.652 2.646 2.268 1.736 3.682 4.186 4.242 7.35h-5.922c-.364-1.596-1.148-2.842-2.352-3.738-1.176-.924-2.744-1.386-4.704-1.386-2.716 0-4.844.924-6.384 2.772-1.54 1.848-2.31 4.382-2.31 7.602 0 3.22.77 5.754 2.31 7.602 1.54 1.82 3.668 2.73 6.384 2.73 1.96 0 3.528-.42 4.704-1.26 1.204-.868 1.988-2.058 2.352-3.57h5.922c-.56 3.024-1.974 5.39-4.242 7.098-2.24 1.708-5.124 2.562-8.652 2.562z" fill="#fff"/></svg>