<?xml version="1.0" standalone="no"?>
<!DOCTYPE svg PUBLIC "-//W3C//DTD SVG 20010904//EN"
 "http://www.w3.org/TR/2001/REC-SVG-20010904/DTD/svg10.dtd">
<svg version="1.0" xmlns="http://www.w3.org/2000/svg"
 width="512.000000pt" height="512.000000pt" viewBox="0 0 512.000000 512.000000"
 preserveAspectRatio="xMidYMid meet">
<metadata>
Created by potrace 1.14, written by Peter Selinger 2001-2017
</metadata>
<g transform="translate(0.000000,512.000000) scale(0.100000,-0.100000)"
fill="#000000" stroke="none">
<path d="M2310 5109 c-502 -55 -974 -249 -1355 -556 -129 -104 -340 -321 -433
-445 -265 -354 -434 -758 -498 -1193 -22 -147 -29 -428 -15 -575 51 -524 238
-988 558 -1385 104 -129 321 -340 445 -433 362 -271 774 -440 1228 -504 124
-17 516 -17 635 0 464 67 873 234 1230 501 122 92 341 304 440 426 290 357
483 798 551 1260 22 147 29 428 15 575 -51 524 -238 988 -558 1385 -104 129
-321 340 -445 433 -354 265 -755 432 -1193 498 -121 18 -487 26 -605 13z m598
-1418 c267 -68 486 -243 582 -467 21 -47 70 -207 70 -225 0 -6 -91 -8 -216 -7
l-216 3 -22 60 c-53 146 -160 243 -321 291 -44 13 -93 17 -180 17 -101 0 -133
-5 -202 -27 -223 -72 -370 -262 -414 -536 -15 -94 -12 -322 5 -411 52 -269
210 -455 437 -516 89 -23 282 -23 364 1 159 47 268 144 314 279 l18 52 217 3
218 2 -7 -32 c-32 -155 -110 -302 -215 -408 -124 -126 -259 -200 -441 -242
-80 -19 -123 -22 -289 -22 -179 1 -203 3 -295 27 -360 96 -606 350 -701 723
-63 251 -55 549 23 782 119 359 390 598 756 668 111 21 408 12 515 -15z"/>
</g>
</svg>
