<svg width="28" height="31" viewBox="0 0 28 31" fill="none" xmlns="http://www.w3.org/2000/svg">
<path d="M14.7702 30.5037C11.8022 30.5037 9.25424 29.8737 7.12624 28.6137C4.99824 27.3257 3.36023 25.5477 2.21223 23.2797C1.06423 20.9837 0.490234 18.3377 0.490234 15.3417C0.490234 12.3457 1.06423 9.6997 2.21223 7.4037C3.36023 5.1077 4.99824 3.3157 7.12624 2.0277C9.25424 0.739703 11.8022 0.0957031 14.7702 0.0957031C18.2982 0.0957031 21.1822 0.977702 23.4222 2.7417C25.6902 4.4777 27.1042 6.9277 27.6642 10.0917H21.7422C21.3782 8.4957 20.5942 7.2497 19.3902 6.3537C18.2142 5.4297 16.6462 4.9677 14.6862 4.9677C11.9702 4.9677 9.84224 5.8917 8.30224 7.7397C6.76224 9.5877 5.99224 12.1217 5.99224 15.3417C5.99224 18.5617 6.76224 21.0957 8.30224 22.9437C9.84224 24.7637 11.9702 25.6737 14.6862 25.6737C16.6462 25.6737 18.2142 25.2537 19.3902 24.4137C20.5942 23.5457 21.3782 22.3557 21.7422 20.8437H27.6642C27.1042 23.8677 25.6902 26.2337 23.4222 27.9417C21.1822 29.6497 18.2982 30.5037 14.7702 30.5037Z" fill="white"/>
</svg>
