<svg width="70" height="70" viewBox="0 0 70 70" fill="none" xmlns="http://www.w3.org/2000/svg">
<path d="M35 70C54.33 70 70 54.33 70 35C70 15.67 54.33 0 35 0C15.67 0 0 15.67 0 35C0 54.33 15.67 70 35 70Z" fill="#970B0B"/>
<path d="M35.7702 49.504C32.8022 49.504 30.2542 48.874 28.1262 47.614C25.9982 46.326 24.3602 44.548 23.2122 42.28C22.0642 39.984 21.4902 37.338 21.4902 34.342C21.4902 31.346 22.0642 28.7 23.2122 26.404C24.3602 24.108 25.9982 22.316 28.1262 21.028C30.2542 19.74 32.8022 19.096 35.7702 19.096C39.2982 19.096 42.1822 19.978 44.4222 21.742C46.6902 23.478 48.1042 25.928 48.6642 29.092H42.7422C42.3782 27.496 41.5942 26.25 40.3902 25.354C39.2142 24.43 37.6462 23.968 35.6862 23.968C32.9702 23.968 30.8422 24.892 29.3022 26.74C27.7622 28.588 26.9922 31.122 26.9922 34.342C26.9922 37.562 27.7622 40.096 29.3022 41.944C30.8422 43.764 32.9702 44.674 35.6862 44.674C37.6462 44.674 39.2142 44.254 40.3902 43.414C41.5942 42.546 42.3782 41.356 42.7422 39.844H48.6642C48.1042 42.868 46.6902 45.234 44.4222 46.942C42.1822 48.65 39.2982 49.504 35.7702 49.504Z" fill="white"/>
</svg>
