<svg width="444" height="43" viewBox="0 0 444 43" fill="none" xmlns="http://www.w3.org/2000/svg">
<circle cx="2" cy="1.5" r="1.5" fill="black"/>
<circle cx="2" cy="21.5" r="1.5" fill="black"/>
<circle cx="2" cy="41.5" r="1.5" fill="black"/>
<circle cx="22" cy="1.5" r="1.5" fill="black"/>
<circle cx="22" cy="21.5" r="1.5" fill="black"/>
<circle cx="22" cy="41.5" r="1.5" fill="black"/>
<circle cx="42" cy="1.5" r="1.5" fill="black"/>
<circle cx="42" cy="21.5" r="1.5" fill="black"/>
<circle cx="42" cy="41.5" r="1.5" fill="black"/>
<circle cx="62" cy="1.5" r="1.5" fill="black"/>
<circle cx="62" cy="21.5" r="1.5" fill="black"/>
<circle cx="62" cy="41.5" r="1.5" fill="black"/>
<circle cx="82" cy="1.5" r="1.5" fill="black"/>
<circle cx="82" cy="21.5" r="1.5" fill="black"/>
<circle cx="82" cy="41.5" r="1.5" fill="black"/>
<circle cx="102" cy="1.5" r="1.5" fill="black"/>
<circle cx="102" cy="21.5" r="1.5" fill="black"/>
<circle cx="102" cy="41.5" r="1.5" fill="black"/>
<circle cx="122" cy="1.5" r="1.5" fill="black"/>
<circle cx="122" cy="21.5" r="1.5" fill="black"/>
<circle cx="122" cy="41.5" r="1.5" fill="black"/>
<circle cx="142" cy="1.5" r="1.5" fill="black"/>
<circle cx="142" cy="21.5" r="1.5" fill="black"/>
<circle cx="142" cy="41.5" r="1.5" fill="black"/>
<circle cx="162" cy="1.5" r="1.5" fill="black"/>
<circle cx="162" cy="21.5" r="1.5" fill="black"/>
<circle cx="162" cy="41.5" r="1.5" fill="black"/>
<circle cx="182" cy="1.5" r="1.5" fill="black"/>
<circle cx="182" cy="21.5" r="1.5" fill="black"/>
<circle cx="182" cy="41.5" r="1.5" fill="black"/>
<circle cx="202" cy="1.5" r="1.5" fill="black"/>
<circle cx="202" cy="21.5" r="1.5" fill="black"/>
<circle cx="202" cy="41.5" r="1.5" fill="black"/>
<circle cx="222" cy="1.5" r="1.5" fill="black"/>
<circle cx="222" cy="21.5" r="1.5" fill="black"/>
<circle cx="222" cy="41.5" r="1.5" fill="black"/>
<circle cx="242" cy="1.5" r="1.5" fill="black"/>
<circle cx="242" cy="21.5" r="1.5" fill="black"/>
<circle cx="242" cy="41.5" r="1.5" fill="black"/>
<circle cx="262" cy="1.5" r="1.5" fill="black"/>
<circle cx="262" cy="21.5" r="1.5" fill="black"/>
<circle cx="262" cy="41.5" r="1.5" fill="black"/>
<circle cx="282" cy="1.5" r="1.5" fill="black"/>
<circle cx="282" cy="21.5" r="1.5" fill="black"/>
<circle cx="282" cy="41.5" r="1.5" fill="black"/>
<circle cx="302" cy="1.5" r="1.5" fill="black"/>
<circle cx="302" cy="21.5" r="1.5" fill="black"/>
<circle cx="302" cy="41.5" r="1.5" fill="black"/>
<circle cx="322" cy="1.5" r="1.5" fill="black"/>
<circle cx="322" cy="21.5" r="1.5" fill="black"/>
<circle cx="322" cy="41.5" r="1.5" fill="black"/>
<circle cx="342" cy="1.5" r="1.5" fill="black"/>
<circle cx="342" cy="21.5" r="1.5" fill="black"/>
<circle cx="342" cy="41.5" r="1.5" fill="black"/>
<circle cx="362" cy="1.5" r="1.5" fill="black"/>
<circle cx="362" cy="21.5" r="1.5" fill="black"/>
<circle cx="362" cy="41.5" r="1.5" fill="black"/>
<circle cx="382" cy="1.5" r="1.5" fill="black"/>
<circle cx="382" cy="21.5" r="1.5" fill="black"/>
<circle cx="382" cy="41.5" r="1.5" fill="black"/>
<circle cx="402" cy="1.5" r="1.5" fill="black"/>
<circle cx="402" cy="21.5" r="1.5" fill="black"/>
<circle cx="402" cy="41.5" r="1.5" fill="black"/>
<circle cx="422" cy="1.5" r="1.5" fill="black"/>
<circle cx="422" cy="21.5" r="1.5" fill="black"/>
<circle cx="422" cy="41.5" r="1.5" fill="black"/>
<circle cx="442" cy="1.5" r="1.5" fill="black"/>
<circle cx="442" cy="21.5" r="1.5" fill="black"/>
<circle cx="442" cy="41.5" r="1.5" fill="black"/>
</svg>
